<?xml version="1.0" standalone="no"?><!DOCTYPE svg PUBLIC "-//W3C//DTD SVG 1.1//EN" "http://www.w3.org/Graphics/SVG/1.1/DTD/svg11.dtd"><svg t="1723041757676" class="icon" viewBox="0 0 1269 1024" version="1.1" xmlns="http://www.w3.org/2000/svg" p-id="9932" xmlns:xlink="http://www.w3.org/1999/xlink" width="247.8515625" height="200"><path d="M124.469694 340.769612c15.64327-68.492155 46.507019-164.888522 85.403799-260.439306l301.872832 0c36.782824 89.208918 69.337737 188.142031 83.289843 260.439306L124.469694 340.769612zM162.098101 2.536746c0 0-150.090834 348.379851-115.844756 451.118084 34.668869 104.429397 162.774566 219.851363 251.137903 231.689513l-1.268373 247.332783-60.881916 0c-68.914946 0-95.550784 53.271676-95.550784 84.558216l435.474814 0c0-31.28654-26.635838-84.558216-90.477291-84.558216l-63.841453 2.536746-4.227911-253.251858c85.82659-12.260941 221.965318-128.528489 252.829067-228.307184 37.205615-120.918249-110.348472-451.118084-110.348472-451.118084L162.098101 2.536746z" fill="#2c2c2c" p-id="9933"></path><path d="M1193.285549 0l-52.848885 6.764657 0 374.592898-88.363336 10.569777 3.382329-385.162675-81.175888-3.382329-3.382329 374.592898-74.41123 6.764657-2.113955-382.203138-57.922378 0.845582c0 0-55.385632 305.255161-29.172585 393.618497 11.415359 38.89678 106.543353 82.867052 167.002477 93.85962l0 480.290669c0 23.253509 22.407927 52.848885 44.815855 52.848885 21.985136 0 39.742362-19.025599 39.742362-42.279108l-3.382329-490.860446c98.933113-7.187448 153.895954-58.345169 164.465731-93.85962C1246.134434 309.060281 1193.285549 0 1193.285549 0z" fill="#2c2c2c" p-id="9934"></path></svg>