<?xml version="1.0" standalone="no"?><!DOCTYPE svg PUBLIC "-//W3C//DTD SVG 1.1//EN" "http://www.w3.org/Graphics/SVG/1.1/DTD/svg11.dtd"><svg t="1723041736660" class="icon" viewBox="0 0 1024 1024" version="1.1" xmlns="http://www.w3.org/2000/svg" p-id="8597" xmlns:xlink="http://www.w3.org/1999/xlink" width="200" height="200"><path d="M960 480H416V288h32a96 96 0 0 0 90.112-64H960a32 32 0 0 0 0-64H538.112A96 96 0 0 0 448 96h-32V64a32 32 0 0 0-64 0v416h-32V64a32 32 0 0 0-64 0v416H224V64a32 32 0 0 0-64 0v416H64a32 32 0 0 0-32 32 480 480 0 0 0 960 0 32 32 0 0 0-32-32zM416 160h32a32 32 0 0 1 0 64h-32z m96 768A416.544 416.544 0 0 1 97.216 544h829.568A416.576 416.576 0 0 1 512 928z" fill="#2c2c2c" p-id="8598"></path></svg>