<?xml version="1.0" standalone="no"?><!DOCTYPE svg PUBLIC "-//W3C//DTD SVG 1.1//EN" "http://www.w3.org/Graphics/SVG/1.1/DTD/svg11.dtd"><svg t="1723041700430" class="icon" viewBox="0 0 1030 1024" version="1.1" xmlns="http://www.w3.org/2000/svg" p-id="7041" xmlns:xlink="http://www.w3.org/1999/xlink" width="201.171875" height="200"><path d="M204.7105 533.933a227.321 227.321 0 1 0 454.642 0 227.321 227.321 0 1 0-454.642 0zM509.1365 77.482a77.482 77.482 0 1 0 154.964 0 77.482 77.482 0 1 0-154.964 0zM818.5375 324.626a77.482 77.482 0 1 0 154.964 0 77.482 77.482 0 1 0-154.964 0zM21.3305 894.964a105.897 105.897 0 1 0 211.795 0 105.897 105.897 0 1 0-211.795 0zM0.0005 190.314a105.144 105.144 0 1 0 210.287 0 105.144 105.144 0 1 0-210.287 0zM761.2545 889.235a134.765 134.765 0 1 0 269.53 0 134.765 134.765 0 1 0-269.53 0z" p-id="7042" fill="#2c2c2c"></path><path d="M623.1505 474.088l281.62-166.549 26.093 44.115-281.626 166.557zM130.0175 872.314l221.97-240.375 37.648 34.769-221.97 240.375z m443.789-202.342l29.666-41.794 266.8 189.394-29.665 41.794zM95.4285 209.27l34.731-37.686L370.7705 393.29l-34.732 37.693z m375.193 210.777l70.427-319.524 50.047 11.035-70.42 319.515z" p-id="7043" fill="#2c2c2c"></path></svg>