<?xml version="1.0" standalone="no"?><!DOCTYPE svg PUBLIC "-//W3C//DTD SVG 1.1//EN" "http://www.w3.org/Graphics/SVG/1.1/DTD/svg11.dtd"><svg t="1721724997202" class="icon" viewBox="0 0 1024 1024" version="1.1" xmlns="http://www.w3.org/2000/svg" p-id="15020" xmlns:xlink="http://www.w3.org/1999/xlink" width="200" height="200"><path d="M128.32 431.168l0.32 4.096 0.896 8.32c6.784 49.344 37.568 65.28 185.664 110.656l95.936 29.056 11.264 3.84a42.624 42.624 0 0 1 8.704 3.84l1.024 0.896 1.216 1.536c1.472 2.368 3.392 7.04 6.592 17.088l5.568 18.048 27.648 91.136 10.496 33.344c36.544 113.856 53.888 136.96 101.12 142.08l3.904 0.32c61.952 5.248 77.248-21.12 139.456-191.232l132.992-365.504 11.072-31.552c31.232-90.88 31.744-118.08 1.536-150.016l-3.328-3.456c-38.208-38.144-66.24-33.792-196.224 13.248L297.536 304.128l-42.432 16c-109.376 42.176-129.984 61.184-126.784 111.04z m199.296-54.976l380.416-138.496c80.896-28.992 102.912-33.088 107.136-28.864l0.768 1.28 0.512 1.92c1.28 9.216-6.08 37.312-33.408 113.152l-135.232 371.2-16.512 43.264c-23.552 60.224-33.664 78.208-35.968 78.08l-1.088-1.28-1.792-2.56a150.272 150.272 0 0 1-10.048-18.752l-5.248-11.84-3.584-8.768a1136.896 1136.896 0 0 1-25.152-75.52l-30.72-101.184c-10.24-33.472-16-46.72-30.4-61.12a82.688 82.688 0 0 0-5.248-4.8l-6.08-4.8c-9.984-7.296-20.224-11.52-42.752-18.56l-130.816-39.936-24.576-8a501.248 501.248 0 0 1-39.296-14.656l-4.544-1.92c-21.76-9.728-27.648-15.168-27.648-15.36l0.32-0.704 1.216-1.088c6.656-5.312 37.44-20.032 119.808-50.688z" fill="#000000" fill-opacity=".88" p-id="15021"></path></svg>