<?xml version="1.0" standalone="no"?><!DOCTYPE svg PUBLIC "-//W3C//DTD SVG 1.1//EN" "http://www.w3.org/Graphics/SVG/1.1/DTD/svg11.dtd"><svg t="1722395259562" class="icon" viewBox="0 0 1024 1024" version="1.1" xmlns="http://www.w3.org/2000/svg" p-id="3411" xmlns:xlink="http://www.w3.org/1999/xlink" width="200" height="200"><path d="M716.8 256h102.4v716.8H204.8V256h102.4V204.8a102.4 102.4 0 0 1 102.4-102.4h204.8a102.4 102.4 0 0 1 102.4 102.4v51.2z m153.6 0h51.2a102.4 102.4 0 0 1 102.4 102.4v512a102.4 102.4 0 0 1-102.4 102.4h-51.2V256zM153.6 256v716.8H102.4a102.4 102.4 0 0 1-102.4-102.4V358.4c0-56.32 46.08-102.4 102.4-102.4h51.2z m256-51.2v51.2h204.8V204.8H409.6z" p-id="3412" fill="#2c2c2c"></path></svg>