<?xml version="1.0" standalone="no"?><!DOCTYPE svg PUBLIC "-//W3C//DTD SVG 1.1//EN" "http://www.w3.org/Graphics/SVG/1.1/DTD/svg11.dtd"><svg t="1722244588621" class="icon" viewBox="0 0 1024 1024" version="1.1" xmlns="http://www.w3.org/2000/svg" p-id="4912" xmlns:xlink="http://www.w3.org/1999/xlink" width="200" height="200"><path d="M777.94133333 816.96c-9.984 0-19.95733333-3.808-27.584-11.424L218.432 273.632c-15.24266667-15.24266667-15.24266667-39.92533333 0-55.15733333 15.24266667-15.24266667 39.92533333-15.24266667 55.15733333 0l531.92533334 531.904c15.24266667 15.24266667 15.24266667 39.92533333 0 55.15733333-7.616 7.616-17.58933333 11.424-27.57333334 11.424z" fill="#000000" p-id="4913"></path><path d="M246.016 816.96c-9.984 0-19.95733333-3.808-27.584-11.424-15.24266667-15.24266667-15.24266667-39.92533333 0-55.15733333l531.92533333-531.904c15.24266667-15.24266667 39.92533333-15.24266667 55.15733334 0 15.24266667 15.24266667 15.24266667 39.92533333 0 55.15733333L273.6 805.536c-7.616 7.616-17.6 11.424-27.584 11.424z" fill="#000000" p-id="4914"></path></svg>