<?xml version="1.0" standalone="no"?><!DOCTYPE svg PUBLIC "-//W3C//DTD SVG 1.1//EN" "http://www.w3.org/Graphics/SVG/1.1/DTD/svg11.dtd"><svg t="1722239658307" class="icon" viewBox="0 0 1024 1024" version="1.1" xmlns="http://www.w3.org/2000/svg" p-id="4248" xmlns:xlink="http://www.w3.org/1999/xlink" width="200" height="200"><path d="M511.984 31.999A223.993 223.993 0 0 0 287.991 255.992v319.990001c0 7.807756 0.383988 15.487516 1.151964 23.03928L718.697541 169.5947A224.056998 224.056998 0 0 0 511.984 31.999zM255.992 575.982001c0 17.535452 1.727946 34.55892 5.11984 51.134402l-52.094372 52.094372A319.606012 319.606012 0 0 1 191.994 575.982001v-31.999a31.999 31.999 0 0 1 63.998 0V575.982001zM370.420424 789.287335l-45.950564 46.014562a318.262054 318.262054 0 0 0 144.891472 57.854192 43.262648 43.262648 0 0 0-0.063998 2.815912v42.686666H383.988A42.686666 42.686666 0 0 0 383.988 1023.968001h255.992001a42.686666 42.686666 0 1 0 0-85.309334H554.606669V895.972001l-0.063998-2.815912A320.053998 320.053998 0 0 0 831.974001 575.982001v-31.999a31.999 31.999 0 0 0-63.998 0V575.982001a255.992 255.992 0 0 1-397.555577 213.305334z" fill="#2c2c2c" p-id="4249"></path><path d="M735.977001 423.730758l-342.389301 342.389301A223.993 223.993 0 0 0 735.977001 575.982001V423.794756zM127.996 850.725415a31.999 31.999 0 1 0 45.246586 45.246586L895.972001 173.242586A31.999 31.999 0 0 0 850.725415 127.996L127.996 850.725415z" fill="#2c2c2c" p-id="4250"></path></svg>