<?xml version="1.0" standalone="no"?><!DOCTYPE svg PUBLIC "-//W3C//DTD SVG 1.1//EN" "http://www.w3.org/Graphics/SVG/1.1/DTD/svg11.dtd"><svg t="1722563972518" class="icon" viewBox="0 0 1024 1024" version="1.1" xmlns="http://www.w3.org/2000/svg" p-id="1045" xmlns:xlink="http://www.w3.org/1999/xlink" width="200" height="200"><path d="M489.728 56.96c14.592-3.904 29.952-3.904 44.544 0 16.96 4.672 31.232 15.872 42.624 24.768l3.2 2.56 289.408 225.024 3.264 2.56c16.128 12.48 30.272 23.488 40.832 37.76 9.216 12.48 16.128 26.624 20.352 41.6 4.736 17.088 4.736 35.008 4.736 55.36v314.56c0 22.4 0 41.856-1.28 57.856-1.408 16.832-4.48 33.6-12.672 49.792a128 128 0 0 1-55.936 55.936 130.304 130.304 0 0 1-49.792 12.608c-16 1.28-35.392 1.28-57.92 1.28H673.152c-5.12 0-11.136 0-16.512-0.384a64.384 64.384 0 0 1-24.32-6.528 64 64 0 0 1-28.032-27.968 64.32 64.32 0 0 1-6.528-24.384c-0.448-5.376-0.448-11.456-0.448-16.512V580.288a349.312 349.312 0 0 0-0.448-25.152h-0.64a349.376 349.376 0 0 0-24.512-0.448H452.288a349.376 349.376 0 0 0-25.152 0.448v0.576a349.312 349.312 0 0 0-0.448 24.576v282.56c0 5.12 0 11.136-0.448 16.512a64.32 64.32 0 0 1-6.528 24.32 64 64 0 0 1-27.968 28.032 64.32 64.32 0 0 1-24.384 6.528c-5.376 0.448-11.392 0.448-16.512 0.448H262.848c-22.4 0-41.856 0-57.856-1.28a130.304 130.304 0 0 1-49.792-12.672 128 128 0 0 1-55.936-55.936 130.368 130.368 0 0 1-12.608-49.792c-1.28-16-1.28-35.392-1.28-57.92V450.752v-4.16c-0.064-20.352-0.064-38.272 4.672-55.36a128 128 0 0 1 20.352-41.6c10.56-14.272 24.704-25.28 40.832-37.76l3.264-2.56 289.408-225.088 3.2-2.496c11.392-8.96 25.6-20.096 42.624-24.704z m21.952 83.072c-3.2 2.112-7.424 5.376-15.36 11.52L206.848 376.768c-21.248 16.512-25.216 20.032-27.904 23.68a42.688 42.688 0 0 0-6.784 13.824c-1.216 4.352-1.536 9.6-1.536 36.544v308.736c0 24.576 0 40.448 1.024 52.544 0.896 11.584 2.56 15.872 3.584 17.984a42.624 42.624 0 0 0 18.688 18.688c2.112 1.024 6.4 2.688 17.92 3.584 12.16 1.024 28.032 1.024 52.608 1.024h76.8V578.88c0-10.752 0-21.248 0.768-30.08 0.768-9.792 2.624-21.312 8.576-32.896 8.128-16 21.184-29.12 37.248-37.248 11.584-5.952 23.104-7.808 32.896-8.576 8.832-0.768 19.328-0.768 30.08-0.768h122.24c10.752 0 21.248 0 30.08 0.768 9.792 0.768 21.312 2.624 32.896 8.576 16 8.128 29.056 21.184 37.248 37.248 5.952 11.584 7.808 23.104 8.576 32.832 0.768 8.96 0.768 19.392 0.768 30.144v274.432h76.8c24.576 0 40.448 0 52.544-1.024 11.584-0.896 15.872-2.56 17.984-3.584a42.624 42.624 0 0 0 18.688-18.688c1.088-2.112 2.688-6.4 3.584-17.984 1.024-12.096 1.024-27.968 1.024-52.544V450.752c0-26.88-0.32-32.192-1.536-36.48a42.752 42.752 0 0 0-6.784-13.888c-2.688-3.648-6.656-7.168-27.904-23.68L527.744 151.616A310.592 310.592 0 0 0 512 139.776l-0.32 0.256z" fill="#000000" p-id="1046"></path></svg>