<?xml version="1.0" standalone="no"?><!DOCTYPE svg PUBLIC "-//W3C//DTD SVG 1.1//EN" "http://www.w3.org/Graphics/SVG/1.1/DTD/svg11.dtd"><svg t="1722395321655" class="icon" viewBox="0 0 1024 1024" version="1.1" xmlns="http://www.w3.org/2000/svg" p-id="6551" xmlns:xlink="http://www.w3.org/1999/xlink" width="200" height="200"><path d="M512 384q36.010667 0 61.013333-25.984t25.002667-59.989333q0-36.010667-25.002667-59.989333t-61.013333-24.021333-61.013333 24.021333-25.002667 59.989333q0 34.005333 25.002667 59.989333t61.013333 25.984zM512 598.016q36.010667 0 61.013333-25.984t25.002667-59.989333-25.984-59.989333-59.989333-25.984q-36.010667 0-61.013333 25.984t-25.002667 59.989333 25.002667 59.989333 61.013333 25.984zM512 809.984q36.010667 0 61.013333-25.002667t25.002667-59.008-25.984-59.989333-59.989333-25.984q-36.010667 0-61.013333 25.984t-25.002667 59.989333 25.002667 59.008 61.013333 25.002667zM854.016 425.984q0 59.989333-36.010667 105.002667t-91.989333 61.013333l0 48 128 0q0 59.989333-36.010667 104.021333t-91.989333 59.989333l0 50.005333q0 18.005333-13.013333 29.994667t-31.018667 11.989333l-340.010667 0q-18.005333 0-31.018667-11.989333t-13.013333-29.994667l0-50.005333q-56.021333-16-91.989333-59.989333t-36.010667-104.021333l128 0 0-48q-56.021333-16-91.989333-61.013333t-36.010667-105.002667l128 0 0-48q-56.021333-16-91.989333-59.989333t-36.010667-104.021333l128 0 0-43.989333q0-18.005333 13.013333-29.994667t31.018667-11.989333l340.010667 0q18.005333 0 31.018667 11.989333t13.013333 29.994667l0 43.989333 128 0q0 59.989333-36.010667 104.021333t-91.989333 59.989333l0 48 128 0z" fill="#2c2c2c" p-id="6552"></path></svg>